<?xml version="1.0" encoding="UTF-8"?>
<svg width="38px" height="50px" viewBox="0 0 38 50" version="1.1" xmlns="http://www.w3.org/2000/svg" xmlns:xlink="http://www.w3.org/1999/xlink">
    <!-- Generator: Sketch 63.1 (92452) - https://sketch.com -->
    <title>Group</title>
    <desc>Created with Sketch.</desc>
    <g id="Mobile-v2" stroke="none" stroke-width="1" fill="none" fill-rule="evenodd">
        <g id="LM-Slideshow-1" transform="translate(-26.000000, -25.000000)" fill="#FFFFFF" fill-rule="nonzero">
            <g id="icon" transform="translate(26.000000, 25.000000)">
                <g id="Group" transform="translate(19.000000, 24.666667) scale(-1, 1) rotate(-180.000000) translate(-19.000000, -24.666667) translate(0.000000, 0.166667)">
                    <path shape-rendering="auto" d="M17.4380922,48.8276173 C17.4288402,48.8036912 13.8187259,38.3111829 5.63906897,14.5258941 C3.04759527,6.98917741 0.923345501,0.816247579 0.920569913,0.807965473 C0.914093542,0.792321495 0.891888841,0.791401261 0.620806444,0.791401261 L0.327519346,0.791401261 L0.163759673,0.401222034 C0.0740156714,0.186807507 0,0.00920234024 0,0.00552140414 C0,0.00276070207 0.736455931,0 1.63759673,0 L3.27519346,0 L3.27519346,0.39570063 L3.27519346,0.791401261 L3.00226067,0.791401261 C2.79039081,0.791401261 2.72932788,0.794161963 2.72932788,0.803364303 C2.72932788,0.816247579 9.58873023,20.6592538 9.59150582,20.6555729 C9.59335621,20.6537324 9.73768677,20.2285843 9.91347399,19.7086521 C10.088336,19.1887199 10.2382178,18.7543694 10.2456193,18.7433266 C10.2530209,18.7313636 10.2705996,18.6871923 10.2844775,18.6439413 C10.2974303,18.6006903 10.3205602,18.5307525 10.3344381,18.4875015 C10.3483161,18.4442505 10.371446,18.3724723 10.3853239,18.3264606 C10.3992018,18.2813691 10.4158554,18.2270753 10.4232569,18.2068302 C10.4297333,18.186585 10.4500876,18.1203282 10.4685915,18.0595927 C10.4870954,17.9988573 10.508375,17.9326004 10.5148513,17.9123553 C10.5222529,17.8921101 10.5453828,17.8194116 10.5657371,17.7513143 C10.5870166,17.683217 10.6101465,17.6105185 10.6166229,17.5902734 C10.6240244,17.5700282 10.6471543,17.4973297 10.6675086,17.4292324 C10.6887882,17.3611351 10.711918,17.2884366 10.7183944,17.2681915 C10.725796,17.2479463 10.7489259,17.1752478 10.7702054,17.1071505 C10.8497722,16.8513254 10.862725,16.8071542 10.8756777,16.7712651 C10.8821541,16.7510199 10.905284,16.6783215 10.9265635,16.6102241 C10.9469178,16.5421268 10.9700477,16.4694283 10.9774493,16.4491832 C10.9839256,16.428938 11.0070555,16.3562395 11.028335,16.2881422 C11.0486894,16.2200449 11.0718193,16.1473464 11.0792208,16.1271013 C11.0856972,16.1068561 11.1088271,16.0341576 11.1301066,15.9660603 C11.1504609,15.897963 11.1735908,15.8252645 11.1809924,15.8050194 C11.1874687,15.7847742 11.2087482,15.7185174 11.2272522,15.6577819 C11.2457561,15.5970465 11.2661104,15.5307896 11.273512,15.5105445 C11.2799883,15.4902993 11.3031182,15.4176008 11.3243977,15.3495035 C11.344752,15.2814062 11.3678819,15.2087077 11.3752835,15.1884626 C11.3817599,15.1682174 11.4048898,15.0955189 11.4261693,15.0274216 C11.4465236,14.9593243 11.4696535,14.8866258 11.4770551,14.8663807 C11.4835314,14.8461355 11.5066613,14.773437 11.5279408,14.7053397 C11.5482951,14.6372424 11.571425,14.5645439 11.5788266,14.5442987 C11.585303,14.5240536 11.6065825,14.4577968 11.6250864,14.3970613 C11.675047,14.2360204 11.7583146,13.9700727 11.7731177,13.927742 C11.7795941,13.9074968 11.802724,13.8347983 11.8240035,13.766701 C11.8443578,13.6986037 11.8674877,13.6259052 11.8748893,13.60566 C11.8813657,13.5854149 11.9044956,13.5127164 11.9257751,13.4446191 C11.9470546,13.3765218 11.9701845,13.3038233 11.9766608,13.2835781 C11.9840624,13.263333 12.0071923,13.1906345 12.0275466,13.1225372 C12.0488261,13.0544399 12.071956,12.9817414 12.0784324,12.9614962 C12.0858339,12.9412511 12.1089638,12.8685526 12.1302434,12.8004553 C12.1515229,12.732358 12.1802039,12.6412548 12.1940819,12.5980038 C12.2209126,12.516103 12.2699479,12.3587429 12.3282353,12.170095 C12.3467392,12.1093595 12.3680187,12.0431027 12.3744951,12.0228575 C12.3818966,12.0026124 12.4050265,11.9299139 12.4253808,11.8618166 C12.4466603,11.7937193 12.4697902,11.7210208 12.4762666,11.7007756 C12.4836682,11.6805305 12.5067981,11.607832 12.5280776,11.5397347 C12.5493571,11.4716373 12.5780382,11.3805342 12.5919161,11.3372832 C12.605794,11.2940322 12.6289239,11.2222539 12.6428019,11.1762422 C12.6566798,11.1311508 12.6733333,11.0768569 12.6798097,11.0566118 C12.6872113,11.0363666 12.7075656,10.9701098 12.7260695,10.9093744 C12.7445734,10.8486389 12.7658529,10.7823821 12.7723293,10.7621369 C12.7797309,10.7418918 12.8028608,10.6691933 12.8232151,10.601096 C12.8444946,10.5329986 12.8676245,10.4603002 12.8741009,10.440055 C12.8815024,10.4198099 12.9046323,10.3471114 12.9249866,10.279014 C12.9462661,10.2109167 12.969396,10.1382182 12.9758724,10.1179731 C12.983274,10.0977279 13.0064039,10.0250295 13.0267582,9.95693214 C13.0480377,9.88883482 13.0711676,9.81613633 13.0776439,9.79589119 C13.0850455,9.77564604 13.1053998,9.70938919 13.1239037,9.64865374 C13.1424077,9.5879183 13.1636872,9.52166145 13.1701635,9.5014163 C13.1775651,9.48117115 13.200695,9.40847266 13.2210493,9.34037534 C13.2423288,9.27227803 13.2654587,9.19957954 13.2719351,9.17933439 C13.2793367,9.15908924 13.3024665,9.08639075 13.3228209,9.01829344 C13.3441004,8.95019612 13.3672303,8.87749763 13.3737066,8.85725248 C13.3811082,8.83700733 13.4042381,8.76430884 13.4245924,8.69621153 C13.4458719,8.62811421 13.4690018,8.55541572 13.4754782,8.53517057 C13.4828797,8.51492542 13.5032341,8.44866857 13.5226632,8.38793313 C13.5855765,8.18456141 13.6198087,8.07505356 13.6327615,8.0382442 C13.6392379,8.01799905 13.6623678,7.94530056 13.6836473,7.87720325 C13.7040016,7.80910593 13.7271315,7.73640744 13.734533,7.71616229 C13.7410094,7.69591714 13.7641393,7.62321865 13.7854188,7.55512134 C13.8057731,7.48702402 13.828903,7.41432553 13.8363046,7.39408038 C13.842781,7.37383523 13.8640605,7.30757838 13.8825644,7.24684294 C13.9010683,7.18610749 13.923273,7.11340901 13.932525,7.08580198 C13.9417769,7.05819496 13.961206,6.99837975 13.975084,6.95236805 C13.9898871,6.90727658 14.0102414,6.84101973 14.0213438,6.80513061 C14.0324461,6.77016171 14.0592768,6.68457995 14.0805563,6.61648263 C14.1018358,6.54838531 14.1249657,6.47568683 14.1323673,6.45544168 C14.1388436,6.43519653 14.1619735,6.36249804 14.183253,6.29440072 C14.2036073,6.22630341 14.2267372,6.15360492 14.2341388,6.13335977 C14.2406152,6.11311462 14.2618947,6.04685777 14.2803986,5.98612233 C14.2989025,5.92538688 14.3211072,5.85268839 14.3312844,5.82508137 C14.3405363,5.79747435 14.3655166,5.71833423 14.3867961,5.65023691 C14.4080756,5.58213959 14.4312055,5.5094411 14.4376819,5.48919595 C14.4450835,5.4689508 14.4682134,5.39625232 14.4894929,5.328155 C14.5107724,5.26005768 14.5394535,5.16895451 14.5533314,5.12570351 C14.5662841,5.08245251 14.5875636,5.01619566 14.598666,4.97846607 C14.6106935,4.94073647 14.6254967,4.89288431 14.6328982,4.87263916 C14.6393746,4.85239401 14.6625045,4.77969552 14.6828588,4.7115982 C14.7041383,4.64350089 14.7272682,4.5708024 14.7337446,4.55055725 C14.7411462,4.5303121 14.7642761,4.45761361 14.7855556,4.38951629 C14.8068351,4.32141898 14.8355161,4.23031581 14.8493941,4.18706481 C14.863272,4.14381381 14.8864019,4.07203556 14.9002799,4.02602385 C14.9141578,3.98093239 14.9372877,3.9082339 14.9511656,3.8649829 C14.9641184,3.8217319 14.9853979,3.75547505 14.9965002,3.71774546 C15.0076026,3.68001586 15.0233309,3.63216369 15.0298073,3.61191854 C15.0362837,3.5916734 15.0594135,3.51897491 15.0806931,3.45087759 C15.1019726,3.38278027 15.1251025,3.31008178 15.1315788,3.28983664 C15.1389804,3.26959149 15.1621103,3.196893 15.1824646,3.12879568 C15.2037441,3.06069836 15.226874,2.98799988 15.2333504,2.96775473 C15.2407519,2.94750958 15.2638818,2.87481109 15.2842362,2.80671377 C15.3055157,2.73861646 15.3286456,2.66591797 15.3351219,2.64567282 C15.3425235,2.62542767 15.3628778,2.55917082 15.3813817,2.49843538 C15.3998856,2.43769993 15.4202399,2.37144308 15.4276415,2.35119793 C15.4341179,2.33095278 15.4572478,2.25825429 15.4785273,2.19015698 C15.4998068,2.12205966 15.5229367,2.04936117 15.5294131,2.02911602 C15.5368146,2.00887087 15.5599445,1.93617239 15.5802988,1.86807507 C15.6015783,1.79997775 15.6247082,1.72727926 15.6311846,1.70703411 C15.6385862,1.68678897 15.6617161,1.61409048 15.6820704,1.54599316 C15.7033499,1.47789584 15.7264798,1.40519735 15.7329562,1.38495221 C15.7403577,1.36470706 15.760712,1.29845021 15.779216,1.23771476 C15.7977199,1.17697932 15.8189994,1.11072247 15.8254757,1.09047732 C15.8319521,1.07023217 15.855082,0.997533682 15.8772867,0.929436364 C15.8985662,0.861339046 15.9300229,0.761953772 15.9466764,0.708580198 C15.9642551,0.655206625 15.9781331,0.606434222 15.9781331,0.600912818 C15.9781331,0.594471179 15.9864598,0.580667669 15.996637,0.570545095 C16.0142157,0.553060648 16.0271685,0.552140414 16.3139792,0.552140414 C16.539727,0.552140414 16.6165182,0.554901116 16.6266954,0.564103457 C16.6414985,0.576066499 16.6461245,0.587109307 16.7229158,0.832811792 C16.7515968,0.92391496 16.7802779,1.01501813 16.7867543,1.03526328 C16.7941558,1.05550843 16.8108094,1.10980223 16.8246873,1.1548937 C16.8385653,1.2009054 16.8552188,1.25427897 16.8616951,1.27452412 C16.8690967,1.29476927 16.889451,1.36102612 16.9079549,1.42176157 C16.9264589,1.48249701 16.9477384,1.54875386 16.9542147,1.56899901 C16.9606911,1.58924416 16.983821,1.66194265 17.0051005,1.73003997 C17.0254548,1.79813728 17.0485847,1.87083577 17.0559863,1.89108092 C17.0624627,1.91132607 17.0855926,1.98402456 17.1068721,2.05212187 C17.1272264,2.12021919 17.1503563,2.19291768 17.1568326,2.21316283 C17.163309,2.23340798 17.1781121,2.28126015 17.1901397,2.31898974 C17.201242,2.35671934 17.2160452,2.4045715 17.2234467,2.42481665 C17.2299231,2.4450618 17.253053,2.51776029 17.2734073,2.58585761 C17.2946868,2.65395493 17.3168915,2.72665341 17.3242931,2.74689856 C17.3307695,2.76714371 17.352049,2.83340056 17.3705529,2.89413601 C17.4399426,3.11959334 17.4788008,3.24474517 17.4908284,3.2806343 C17.5065567,3.32480553 17.5685448,3.52449631 17.6730919,3.86038173 C17.6934463,3.92663858 17.715651,3.99657637 17.7221273,4.01682151 C17.7295289,4.03706666 17.7498832,4.10332351 17.7683871,4.16405896 C17.786891,4.2247944 17.8100209,4.29749289 17.8183477,4.32509991 C17.838702,4.38675559 17.85258,4.43276729 17.9025405,4.59196778 C17.92382,4.6600651 17.9460247,4.73276359 17.9534263,4.75300873 C17.9599027,4.77325388 17.9811822,4.83951073 17.9996861,4.90024618 C18.0311428,5.00515286 18.0570482,5.08521322 18.0829537,5.16711404 C18.0894301,5.18735919 18.11256,5.26005768 18.1338395,5.328155 C18.1541938,5.39625232 18.1773237,5.4689508 18.1847253,5.48919595 C18.1912016,5.5094411 18.2143315,5.58213959 18.2356111,5.65023691 C18.2790953,5.79103271 18.2975992,5.84992769 18.3142527,5.90330126 C18.3207291,5.92354641 18.343859,5.9962449 18.3651385,6.06434222 C18.3854928,6.13243954 18.4086227,6.20513802 18.4160242,6.22538317 C18.4225006,6.24562832 18.4456305,6.31832681 18.46691,6.38642413 C18.5020675,6.50237361 18.5196462,6.55758765 18.6029138,6.82353529 C18.6204925,6.87966956 18.6399217,6.94132524 18.6473232,6.96157039 C18.6537996,6.98181554 18.6704531,7.03610935 18.6843311,7.08120081 C18.698209,7.12721252 18.7213389,7.19899077 18.7352168,7.24224177 C18.7490948,7.28549277 18.7694491,7.35174962 18.7814766,7.38947921 C18.792579,7.42720881 18.8157089,7.50174776 18.8332876,7.55512134 C18.8610435,7.64530427 18.8952757,7.75297165 18.9729922,8.00143484 C18.9905709,8.05756911 19.01,8.11922479 19.0174016,8.13946994 C19.023878,8.15971509 19.0451575,8.22597194 19.0636614,8.28670739 C19.0821653,8.34744283 19.1145471,8.45142928 19.1349015,8.51676589 C19.1552558,8.58302274 19.1867124,8.68240802 19.2042912,8.73762206 C19.2218699,8.79375633 19.241299,8.85541201 19.2487006,8.87565716 C19.2551769,8.89590231 19.2764564,8.96215916 19.2949603,9.02289461 C19.3652752,9.25203288 19.4032083,9.37350377 19.4152358,9.4093929 C19.4226374,9.42963804 19.4457673,9.50233653 19.4670468,9.57043385 C19.4883263,9.63853117 19.5197829,9.73791644 19.5364365,9.79129002 C19.55309,9.84466359 19.5817711,9.93760723 19.600275,9.99834267 C19.6409836,10.1290159 19.6937198,10.2964985 19.7112985,10.3480316 C19.7177749,10.3682767 19.7344284,10.4225706 19.7483063,10.467662 C19.7621843,10.5136737 19.7853142,10.585452 19.7991921,10.628703 C19.81307,10.671954 19.8334244,10.7382108 19.8445267,10.7759404 C19.8565543,10.81367 19.8713574,10.8615222 19.8778338,10.8817673 C19.8843101,10.9020125 19.90744,10.974711 19.9287195,11.0428083 C19.949999,11.1109056 19.9722037,11.1836041 19.9796053,11.2038492 C19.9860817,11.2240944 20.0092116,11.2967929 20.0304911,11.3648902 C20.0517706,11.4329875 20.0749005,11.5075265 20.0823021,11.5305323 C20.0980304,11.580225 20.1452154,11.7302231 20.1979515,11.8986259 C20.2876955,12.1866592 20.3006483,12.2271495 20.3126758,12.2621184 C20.3191522,12.2823635 20.3404317,12.3486204 20.3589356,12.4093558 C20.4292505,12.6384941 20.4671835,12.759965 20.4792111,12.7958541 C20.4866127,12.8160993 20.5097426,12.8887977 20.5300969,12.9568951 C20.5513764,13.0249924 20.5745063,13.0976909 20.5809826,13.117936 C20.592085,13.1501442 20.6216913,13.2449283 20.6799786,13.4354168 C20.6901558,13.4685452 20.7040337,13.5117962 20.7105101,13.5320413 C20.7169864,13.5522865 20.7401163,13.624985 20.7613958,13.6930823 C20.7826753,13.7611796 20.80488,13.8338781 20.8122816,13.8541232 C20.818758,13.8743684 20.8418879,13.9470669 20.8631674,14.0151642 C20.8844469,14.0832615 20.908502,14.1605612 20.9159036,14.1854075 C20.9242303,14.211174 20.9362579,14.2479834 20.9427342,14.2682285 C20.9492106,14.2884737 20.9714153,14.3611722 20.9926948,14.4292695 C21.0139743,14.4973668 21.036179,14.5700653 21.0435806,14.5903105 C21.050057,14.6105556 21.0731869,14.6832541 21.0944664,14.7513514 C21.1157459,14.8194487 21.1388758,14.8939877 21.1462773,14.9169935 C21.1620057,14.9666862 21.2091907,15.1166843 21.2619268,15.2850871 C21.3516708,15.5731204 21.3646236,15.6136107 21.3766511,15.6485796 C21.3886787,15.6853889 21.4266117,15.8105408 21.4700959,15.956858 C21.4830486,16.000109 21.498777,16.0516421 21.5061785,16.0718872 C21.5126549,16.0921324 21.5357848,16.1648309 21.5570643,16.2329282 C21.5783438,16.3010255 21.6014737,16.373724 21.6079501,16.3939691 C21.6144265,16.4142143 21.635706,16.4804711 21.6542099,16.5412066 C21.7245248,16.7703449 21.7624578,16.8918157 21.7744853,16.9277049 C21.7818869,16.94795 21.8050168,17.0206485 21.8262963,17.0887458 C21.9132647,17.3675767 21.9289931,17.4172694 21.9419458,17.4522383 C21.9493474,17.4734036 21.9548985,17.4964095 21.9548985,17.5037714 C21.9548985,17.5120535 21.9734025,17.5553045 21.994682,17.6003959 C22.023363,17.6565302 22.0798,17.8276937 22.1797211,18.1516161 C22.2583628,18.4102019 22.43415,18.9789065 22.5701538,19.4169379 C22.7052324,19.8549693 22.8227323,20.2377867 22.8310591,20.2681544 L22.8458622,20.3224482 L22.8643661,20.2819579 C22.8736181,20.258952 23.0059211,19.9111036 23.1576532,19.5071208 C23.3093853,19.1040583 23.4426135,18.7571301 23.4537159,18.736885 C23.463893,18.7157196 23.4833222,18.6651067 23.4962749,18.6236962 C23.5101528,18.5813654 23.5388339,18.4939432 23.5619638,18.4276863 C23.5841685,18.3623497 23.6276527,18.2316765 23.6591094,18.1378126 C23.6896408,18.0439487 23.7284991,17.9279993 23.7451526,17.8801471 C23.7627313,17.8322949 23.8071407,17.6997812 23.8459989,17.5856722 C23.883932,17.4715632 23.9486957,17.2810747 23.9903295,17.1623645 C24.0310381,17.0436544 24.0856247,16.8862943 24.110605,16.8126756 C24.1346601,16.7390569 24.1873962,16.5881385 24.2253293,16.4767902 C24.2641875,16.3654419 24.3169237,16.2145235 24.3419039,16.1409048 C24.3937149,15.9863055 24.4871597,15.7166769 24.5870809,15.4277234 C24.6259391,15.3163751 24.6777501,15.1654567 24.7027303,15.091838 C24.7277106,15.0182193 24.781372,14.8608593 24.8230058,14.7421491 C24.8646396,14.6234389 24.9164506,14.4725205 24.9386553,14.4062636 C24.96086,14.340927 25.012671,14.1890884 25.0543048,14.0703782 C25.0950134,13.951668 25.1496,13.794308 25.1745802,13.7206893 C25.1986353,13.6470706 25.2513715,13.4961522 25.2893045,13.3848039 C25.3281628,13.2734556 25.3799737,13.1225372 25.4058792,13.0489185 C25.4308595,12.9752997 25.4826705,12.8243814 25.5206035,12.713033 C25.5594617,12.6016847 25.6112727,12.4507663 25.636253,12.3771476 C25.6612333,12.3035289 25.7222962,12.1277642 25.7713316,11.9860482 C25.820367,11.8443321 25.872178,11.6934137 25.8869811,11.6501627 C25.9017842,11.6069117 25.9535952,11.4559934 26.0026306,11.3142773 C26.051666,11.1725613 26.132158,10.9342207 26.1830438,10.7851428 C26.2330043,10.6360648 26.3079452,10.4161289 26.349579,10.2974187 C26.3902877,10.1787085 26.4430238,10.0277902 26.4652285,9.96153331 C26.4874332,9.89619669 26.5392442,9.74435808 26.580878,9.62564789 C26.6225118,9.5069377 26.6761732,9.34957768 26.7011535,9.27595896 C26.7261338,9.20234024 26.7779447,9.05142186 26.8158778,8.94007354 C26.854736,8.82872523 26.9074722,8.67780685 26.9315272,8.60418812 C26.9565075,8.5305694 27.0175705,8.3548047 27.0666058,8.21308866 C27.1628262,7.93517799 27.175779,7.89560793 27.2738497,7.61033538 C27.3099324,7.50634893 27.3728457,7.3241426 27.4135543,7.20543241 C27.4542629,7.08672222 27.5069991,6.93580384 27.5292038,6.86954699 C27.5514085,6.80421037 27.6032195,6.65237176 27.6448533,6.53366157 C27.6864871,6.41495138 27.7382981,6.264033 27.7605028,6.19777615 C27.7827075,6.13243954 27.8345184,5.98060092 27.8761523,5.86189073 C27.9168609,5.74318054 27.9714474,5.58582053 27.9955025,5.5122018 C28.0204828,5.43858308 28.0815457,5.26281838 28.1305811,5.12110234 C28.1796165,4.9793863 28.2314275,4.82846792 28.2462306,4.78521692 C28.2610337,4.74196593 28.304518,4.61589386 28.3433762,4.50454555 C28.3813092,4.39319723 28.4627265,4.15485662 28.5237894,3.97541098 C28.5848523,3.79596535 28.658868,3.57602942 28.6903246,3.48768695 C28.7208561,3.39934448 28.7726671,3.2484261 28.8050489,3.15180153 C28.838356,3.05609719 28.890167,2.90425858 28.9216236,2.81591611 C28.9521551,2.72757365 29.003966,2.57665527 29.0372731,2.48003069 C29.069655,2.38432636 29.1297927,2.20764142 29.1714265,2.08893123 C29.2130603,1.97022105 29.2648713,1.81930267 29.287076,1.75304582 C29.3916231,1.44568765 29.6016426,0.838333196 29.6099694,0.818088047 C29.6145953,0.807045239 29.6108946,0.801523835 29.5951662,0.796922665 C29.5831387,0.794161963 29.37682,0.791401261 29.1362691,0.791401261 L28.6995766,0.791401261 L28.701427,0.397541098 L28.7042026,0.00460117012 L32.9952611,0.00184046805 C36.4240371,0 37.2853945,0.00184046805 37.2853945,0.0110428083 C37.2853945,0.0174844465 37.2298827,0.195089613 37.1614182,0.404902971 L37.037442,0.786800091 L36.6664384,0.791401261 C36.437915,0.794161963 36.2926593,0.799683367 36.2871081,0.805204771 C36.2824821,0.810726175 36.2741554,0.829130856 36.2695294,0.846615302 C36.2639782,0.864099749 36.234372,0.951521981 36.2038405,1.03986445 C36.1723838,1.12820691 36.126124,1.26072061 36.1011437,1.33433933 C36.0761635,1.40795806 36.0308289,1.53863129 36.0012226,1.62421305 C35.9706911,1.71071505 35.9290573,1.83218594 35.9068526,1.89568209 C35.8855731,1.95917824 35.8402385,2.08709077 35.8078566,2.18095464 C35.7754748,2.27481851 35.7134867,2.45518438 35.6709277,2.58125644 C35.6283686,2.70824873 35.5608293,2.90241811 35.5219711,3.01376643 C35.4840381,3.12511475 35.4377783,3.25762844 35.4211248,3.30824132 C35.403546,3.35885419 35.3582114,3.49136789 35.3193532,3.6027162 C35.280495,3.71406452 35.2370108,3.84013658 35.2222076,3.88338758 C35.2074045,3.92663858 35.1694715,4.03430596 35.13894,4.12264843 C35.1084086,4.21099089 35.0621488,4.34350459 35.0371685,4.41712332 C35.0121882,4.49074204 34.9677788,4.6168141 34.9400229,4.69779469 C34.9113418,4.77877529 34.874334,4.88644267 34.8567553,4.93705554 C34.8401017,4.98766841 34.7938419,5.12018211 34.7549837,5.23153043 C34.7170507,5.34287874 34.6726413,5.4689508 34.6578382,5.5122018 C34.643035,5.5554528 34.5995508,5.68152486 34.5606926,5.79287318 C34.4228384,6.18949405 34.3876809,6.29071979 34.3571495,6.38182296 C34.340496,6.43243583 34.2942362,6.56494953 34.2553779,6.67629784 C34.2165197,6.78764616 34.1730355,6.91371822 34.1582324,6.95696922 C34.1434292,7.00022022 34.1064214,7.1078876 34.0749647,7.19623007 C34.0444333,7.28457253 33.9981735,7.41708623 33.9731932,7.49070496 C33.9482129,7.56432368 33.9010279,7.70051831 33.8686461,7.79438218 C33.835339,7.88824605 33.7909296,8.01615858 33.7696501,8.07965473 C33.7474454,8.14315088 33.7048864,8.265542 33.6752801,8.35112377 C33.6456738,8.43762577 33.608666,8.54253244 33.5938629,8.58578344 C33.5790597,8.62903444 33.5355755,8.7551065 33.4967173,8.86645482 C33.4578591,8.97780314 33.4115993,9.11031684 33.3949458,9.16092971 C33.377367,9.21154258 33.348686,9.29620411 33.3292568,9.34957768 C33.3107529,9.40295126 33.2903986,9.46460694 33.2839222,9.48761279 C33.2774459,9.51061864 33.2459892,9.60172181 33.2154578,9.69006427 C33.1840011,9.77840674 33.1368161,9.91552161 33.1090602,9.9937415 C32.9915603,10.3360686 32.9684304,10.4023254 32.9166195,10.5504831 C32.8870132,10.6369851 32.8416786,10.7667381 32.8166983,10.8403568 C32.791718,10.9139755 32.7454582,11.0464892 32.7149268,11.1348317 C32.6843953,11.2231742 32.6464623,11.3308415 32.6316591,11.3740925 C32.616856,11.4173435 32.5733718,11.5434156 32.5345136,11.6547639 C32.4956553,11.7661122 32.4438444,11.9170306 32.4188641,11.9906493 C32.3929586,12.0642681 32.347624,12.1967818 32.3170925,12.2851242 C32.2865611,12.3734667 32.248628,12.4811341 32.2338249,12.5243851 C32.2190218,12.5676361 32.1755376,12.6937081 32.1366793,12.8050564 C32.0978211,12.9164048 32.0515613,13.0489185 32.0349078,13.0995313 C32.0173291,13.1501442 31.9719945,13.2826579 31.9331362,13.3940062 C31.894278,13.5053545 31.8507938,13.6314266 31.8359907,13.6746776 C31.8211875,13.7179286 31.7841797,13.825596 31.752723,13.9139384 C31.7221916,14.0022809 31.6759318,14.1347946 31.6509515,14.2084133 C31.6074673,14.3344854 31.5602823,14.4716003 31.4483336,14.7927619 C31.4224281,14.8691414 31.3798691,14.9906123 31.3548888,15.064231 C31.3299085,15.1378497 31.2836487,15.2703634 31.2531173,15.3587059 C31.0838064,15.8455097 30.9404011,16.2697375 30.8737869,16.4813914 C30.8469563,16.5651327 30.8201256,16.6479537 30.8136492,16.6654382 C30.8062476,16.6829226 30.7905193,16.7307748 30.7775666,16.7712651 C30.732232,16.9111407 30.7239052,16.9369072 30.7155785,16.9553119 C30.7109525,16.9654345 30.6952241,17.0114462 30.6794958,17.0565376 C30.6646927,17.1025493 30.6202833,17.2304619 30.5823502,17.3418102 C30.543492,17.4531585 30.491681,17.6040769 30.4667008,17.6776956 C30.4417205,17.7513143 30.4037874,17.8589817 30.3834331,17.9169564 C30.3621536,17.9749312 30.3399489,18.041188 30.3325474,18.0641939 C30.3251458,18.0871997 30.3029411,18.1534566 30.2816616,18.2114313 C30.2613073,18.2694061 30.2233742,18.3770735 30.1983939,18.4506922 C30.0762681,18.8059025 30.0531382,18.8703189 30.047587,18.8795212 C30.0448114,18.8850426 30.0374099,18.9052878 30.0327839,18.9255329 C30.0226067,18.965103 29.962469,19.1436284 29.9485911,19.1730759 C29.9439651,19.1831985 29.9365635,19.2062043 29.9310123,19.2236888 C29.9263864,19.2411732 29.9051068,19.3037491 29.8838273,19.3617239 C29.863473,19.4196986 29.82554,19.527366 29.8005597,19.6009847 C29.7755794,19.6746034 29.7293196,19.8071171 29.6987882,19.8954596 C29.5905402,20.2064987 29.5498316,20.3242887 29.504497,20.4568024 C29.4795167,20.5304211 29.4332569,20.6629348 29.4027255,20.7512772 C29.372194,20.8396197 29.334261,20.9500478 29.3194578,20.9951393 C29.3037295,21.041151 29.287076,21.0862424 29.28245,21.096365 C29.277824,21.1064876 29.2704225,21.1294934 29.2648713,21.1469779 C29.2602453,21.1644623 29.2389658,21.2270382 29.2176863,21.285013 C29.1964068,21.3429877 29.1751273,21.4055636 29.1705013,21.4230481 C29.1649501,21.4405325 29.1575486,21.4635384 29.1529226,21.4736609 C29.1482966,21.4837835 29.1297927,21.5353166 29.1112888,21.5886902 C29.0937101,21.6420638 29.051151,21.7644549 29.0187692,21.8601592 C28.9854621,21.9567838 28.9438283,22.0782547 28.9262496,22.1316283 C28.9077457,22.1850019 28.8892418,22.236535 28.8846158,22.2466575 C28.8799898,22.2567801 28.8725882,22.279786 28.8670371,22.2972704 C28.8624111,22.3147548 28.8411316,22.3773308 28.8198521,22.4353055 C28.7985726,22.4932802 28.7772931,22.5558562 28.7726671,22.5733406 C28.7671159,22.5908251 28.7597143,22.6138309 28.7550884,22.6239535 C28.7504624,22.6340761 28.7338088,22.6800878 28.7180805,22.7251792 C28.7032774,22.7711909 28.6653444,22.8806988 28.6348129,22.9690412 C28.6033562,23.0573837 28.569124,23.1613701 28.5570964,23.1990997 C28.5450689,23.2368293 28.5247146,23.2994053 28.5108366,23.3371348 C28.4969587,23.3748644 28.465502,23.4659676 28.4405217,23.5395863 C28.4155415,23.6132051 28.3776084,23.7208724 28.3572541,23.7788472 C28.3359746,23.8368219 28.3146951,23.8993978 28.3100691,23.9168823 C28.304518,23.9343667 28.2971164,23.9573726 28.2924904,23.9674952 C28.2878644,23.9776177 28.2712109,24.0236294 28.2554826,24.0687209 C28.2406794,24.1147326 28.2027464,24.2242404 28.1722149,24.3125829 C28.1407583,24.4009254 28.1120772,24.4865071 28.1074512,24.5012309 C28.1028252,24.5168749 28.0796954,24.5831317 28.0565655,24.6484683 C28.0334356,24.7147252 28.0103057,24.780982 28.0056797,24.7957058 C28.0010537,24.8113498 27.9806994,24.871165 27.9594199,24.9291397 C27.9381404,24.9871145 27.9168609,25.0496904 27.9122349,25.0671748 C27.9066837,25.0846593 27.8992822,25.1076651 27.8946562,25.1177877 C27.8900302,25.1279103 27.8733767,25.173922 27.8576483,25.2190134 C27.8428452,25.2650251 27.8058374,25.3726925 27.7762311,25.4582743 C27.7466248,25.5447763 27.7022154,25.6726888 27.6781603,25.7435468 C27.6541052,25.8144048 27.6309753,25.8806617 27.6263494,25.8907843 C27.6161722,25.9119496 27.530129,26.165014 27.5106999,26.2266697 C27.5042235,26.2496755 27.4810936,26.3159324 27.4598141,26.3739071 C27.4394598,26.4318819 27.4015268,26.5395493 27.3765465,26.613168 C27.3164087,26.7870922 27.2322159,27.0281935 27.2257395,27.045678 C27.2220388,27.0530398 27.2072356,27.0972111 27.1924325,27.1423025 C27.1767042,27.1883142 27.1387711,27.2978221 27.1082397,27.3861646 C27.076783,27.474507 27.0481019,27.5600888 27.043476,27.5748125 C27.0351492,27.6033398 26.9518816,27.8435209 26.8917438,28.0119237 C26.8732399,28.0652973 26.8519604,28.1269529 26.8445588,28.1499588 C26.8380825,28.1729646 26.8149526,28.2392215 26.7936731,28.2971962 C26.7733188,28.355171 26.7353857,28.4628384 26.7104054,28.5364571 C26.6854251,28.6100758 26.6391653,28.7425895 26.6086339,28.830932 C26.5771772,28.9192744 26.5484961,29.0048562 26.5438702,29.0195799 C26.5392442,29.0352239 26.5188899,29.0950391 26.4976104,29.1530139 C26.4763309,29.2109886 26.4541262,29.2772455 26.4467246,29.3002513 C26.439323,29.3232572 26.4171183,29.389514 26.3958388,29.4474888 C26.3754845,29.5054635 26.3375515,29.6131309 26.3125712,29.6867496 C26.2875909,29.7603683 26.2496579,29.8680357 26.2293036,29.9260105 C26.2089493,29.9839852 26.1885949,30.0465611 26.1830438,30.0640456 C26.1737918,30.1017752 26.1118037,30.2812208 26.0997761,30.3079076 C26.0525911,30.4128143 26.0192841,30.5002365 25.9424928,30.7266141 C25.9175125,30.8002328 25.8712528,30.9327465 25.8407213,31.0210889 C25.8092646,31.1094314 25.7722568,31.2170988 25.7574537,31.2603498 C25.7426505,31.3036008 25.6991663,31.4296729 25.6603081,31.5410212 C25.6214499,31.6523695 25.5761153,31.7848832 25.5585365,31.8354961 C25.5409578,31.8861089 25.4956232,32.0186226 25.456765,32.1299709 C25.3753478,32.3646306 25.2846786,32.6397806 25.2624739,32.7189207 C25.2448951,32.7814966 25.2134385,32.8753605 25.2014109,32.9029675 C25.1967849,32.9130901 25.1745802,32.9775065 25.1514504,33.0456038 C25.1283205,33.1137011 25.0848362,33.2425339 25.0543048,33.3308763 C25.0237733,33.4192188 24.9775135,33.5517325 24.9525332,33.6253512 C24.9275529,33.69897 24.8896199,33.8066373 24.8692656,33.8646121 C24.8479861,33.9225868 24.8267066,33.9851627 24.8220806,34.0026472 C24.8165294,34.0201316 24.8091279,34.0431375 24.8045019,34.0532601 C24.7998759,34.0633826 24.7832224,34.1093943 24.7674941,34.1544858 C24.7526909,34.2004975 24.7147579,34.3100054 24.6842264,34.3983478 C24.6527698,34.4866903 24.6240887,34.572272 24.6194627,34.5869958 C24.6055848,34.6320873 24.545447,34.8060115 24.5361951,34.8262566 C24.5315691,34.8363792 24.5241675,34.8593851 24.5186164,34.8768695 C24.5139904,34.894354 24.4927109,34.9569299 24.4714314,35.0149046 C24.4501519,35.0728794 24.4288724,35.1354553 24.4242464,35.1529397 C24.4186952,35.1704242 24.4112936,35.19343 24.4066677,35.2035526 C24.4020417,35.2136752 24.3853882,35.2596869 24.3696598,35.3047783 C24.3548567,35.35079 24.3169237,35.4602979 24.2863922,35.5486403 C24.2558607,35.6369828 24.2114513,35.7658156 24.1892466,35.8339129 C24.1661167,35.9020102 24.1429868,35.9655064 24.1383608,35.9737885 C24.1337349,35.9829908 24.1254081,36.0050764 24.1207821,36.0244013 C24.1161561,36.0437263 24.0948766,36.1072224 24.0735971,36.1651971 C24.0523176,36.2231719 24.0301129,36.2894287 24.0227114,36.3124346 C24.0153098,36.3354404 23.9931051,36.4016973 23.9718256,36.459672 C23.9348178,36.5636585 23.8524753,36.8019991 23.8256446,36.8829797 C23.8182431,36.9059855 23.8025147,36.9538377 23.789562,36.9888066 C23.7701329,37.0467813 23.7099951,37.2207056 23.6156252,37.4995365 C23.5971212,37.5529101 23.5786173,37.6044432 23.5739914,37.6145657 C23.5693654,37.6246883 23.5619638,37.6476942 23.5564126,37.6651786 C23.5517867,37.682663 23.5305071,37.745239 23.5092276,37.8032137 C23.4879481,37.8611884 23.4666686,37.9237644 23.4620426,37.9412488 C23.4564915,37.9587333 23.4490899,37.9817391 23.4444639,37.9918617 C23.4398379,38.0019843 23.4231844,38.047996 23.4074561,38.0930874 C23.392653,38.1390991 23.3547199,38.248607 23.3241885,38.3369494 C23.293657,38.4252919 23.2492476,38.5541247 23.2261177,38.622222 C23.203913,38.6903193 23.1807831,38.7547357 23.1761571,38.7648583 C23.1715311,38.7749808 23.1641296,38.7979867 23.1585784,38.8154711 C23.1539524,38.8329556 23.1326729,38.8955315 23.1113934,38.9535062 C23.0901139,39.011481 23.0688344,39.0740569 23.0642084,39.0915413 C23.0586572,39.1090258 23.0512557,39.1320316 23.0466297,39.1421542 C23.0420037,39.1522768 23.0253502,39.1982885 23.0096219,39.24338 C22.9948187,39.2893917 22.9578109,39.397059 22.9282046,39.4826408 C22.8985984,39.5691428 22.8541889,39.6970553 22.8301339,39.7679133 C22.8060788,39.8387714 22.7829489,39.9050282 22.7783229,39.9151508 C22.7736969,39.9252734 22.750567,39.9896897 22.7274371,40.0577871 C22.7043072,40.1258844 22.660823,40.2547171 22.6302915,40.3430596 C22.5997601,40.4314021 22.5535003,40.5639158 22.52852,40.6375345 C22.5035397,40.7111532 22.4656067,40.8188206 22.4452524,40.8767953 C22.4239729,40.9347701 22.4026934,40.997346 22.3980674,41.0148304 C22.3925162,41.0323149 22.3851146,41.0553207 22.3804887,41.0654433 C22.3758627,41.0755659 22.3592091,41.1215776 22.3434808,41.1666691 C22.3286777,41.2126808 22.2907446,41.3221886 22.2602132,41.4105311 C22.2287565,41.4988735 22.2000755,41.5844553 22.1954495,41.5991791 C22.1806463,41.6470312 22.1214338,41.819115 22.1121818,41.8384399 C22.1075559,41.8485625 22.1001543,41.8715683 22.0946031,41.8890528 C22.0899771,41.9065372 22.0686976,41.9691131 22.0474181,42.0270879 C22.0261386,42.0850626 22.0048591,42.1476385 22.0002331,42.165123 C21.994682,42.1826074 21.9872804,42.2056133 21.9826544,42.2157359 C21.9780284,42.2258584 21.9613749,42.2718701 21.9456466,42.3169616 C21.9308434,42.3629733 21.8938356,42.4706407 21.8642293,42.5562224 C21.8346231,42.6427244 21.7902137,42.770637 21.7661586,42.841495 C21.7421035,42.912353 21.7189736,42.9786099 21.7143476,42.9887324 C21.7097216,42.998855 21.6865917,43.0632714 21.664387,43.1313687 C21.6412571,43.199466 21.5968477,43.3282988 21.5663163,43.4166413 C21.5357848,43.5049837 21.4756471,43.6816687 21.4321629,43.8077407 C21.3414937,44.0736883 21.2286198,44.4022119 21.1814348,44.5347256 C21.1638561,44.5853385 21.1435017,44.6451537 21.1361002,44.6681595 C21.1296238,44.6911654 21.1064939,44.7574222 21.0852144,44.815397 C21.0648601,44.8733717 21.0269271,44.9810391 21.0019468,45.0546578 C20.9769665,45.1282765 20.9307067,45.2607902 20.9001752,45.3491327 C20.8696438,45.4374752 20.8252344,45.5663079 20.8021045,45.6344052 C20.7798998,45.7025026 20.7567699,45.7669189 20.7521439,45.7770415 C20.7475179,45.7871641 20.7401163,45.8101699 20.7345652,45.8276544 C20.7299392,45.8451388 20.7086597,45.9077148 20.6873802,45.9656895 C20.6670259,46.0236642 20.6290928,46.1313316 20.6041125,46.2049503 C20.5791322,46.2785691 20.5411992,46.3862364 20.5208449,46.4442112 C20.4995654,46.5021859 20.4773607,46.5684428 20.4699591,46.5914486 C20.4625576,46.6144545 20.4403529,46.6807113 20.4190734,46.7386861 C20.3977939,46.7966608 20.3765143,46.8592367 20.3718884,46.8767212 C20.3663372,46.8942056 20.3570852,46.9218126 20.3496837,46.9365364 C20.3432073,46.9521804 20.3348805,46.9770267 20.3311797,46.9935909 C20.3284042,47.0101551 20.318227,47.0322407 20.308975,47.0442038 C20.2997231,47.0561668 20.2682664,47.1362272 20.2386602,47.2218089 C20.2090539,47.3083109 20.1600185,47.4491067 20.1304122,47.5346885 C20.100806,47.6211905 20.0554714,47.7509435 20.0304911,47.8245622 C19.9786801,47.9736401 19.9518494,48.0509398 19.8500779,48.3444945 C19.8112197,48.4558428 19.7584835,48.6095218 19.7335032,48.684981 C19.7075977,48.7613605 19.6816922,48.8285375 19.6761411,48.834059 C19.6668891,48.8432613 19.420787,48.846022 18.5557288,48.8478625 L17.4473441,48.8506232 L17.4380922,48.8276173 Z M16.2177588,39.6298782 C16.2325619,39.5838665 16.2852981,39.4311077 16.3343335,39.2893917 C16.4176011,39.0464499 16.4472074,38.9617883 16.5665577,38.6130196 C16.5933883,38.5347998 16.6405733,38.3976849 16.6711048,38.3093424 C16.7025615,38.221 16.7460457,38.0949279 16.7691756,38.028671 C16.7913803,37.9633344 16.8431912,37.8114958 16.884825,37.6927856 C16.9264589,37.5740754 16.9801202,37.4167154 17.0051005,37.3430967 C17.0300808,37.269478 17.0818918,37.1185596 17.1198248,37.0072113 C17.158683,36.895863 17.2169704,36.7265399 17.2493522,36.6299153 C17.2826593,36.534211 17.3326199,36.3869735 17.3622261,36.3032322 C17.4408678,36.0750142 17.5833479,35.6627494 17.6342337,35.511831 C17.659214,35.4382123 17.711025,35.2872939 17.7498832,35.1759456 C17.7887414,35.0645973 17.8405524,34.9136789 17.8655327,34.8400601 C17.890513,34.7664414 17.9506507,34.5906767 17.9996861,34.4489607 C18.1097844,34.1314799 18.1264379,34.0817873 18.20693,33.8462074 C18.2420874,33.742221 18.3050007,33.5600146 18.3466346,33.4413044 C18.3882684,33.3225942 18.4400793,33.1716759 18.462284,33.105419 C18.4844887,33.0400824 18.5362997,32.8882438 18.5779335,32.7695336 C18.6195673,32.6508234 18.6713783,32.499905 18.693583,32.4336482 C18.7157877,32.3683116 18.7675987,32.2164729 18.8092325,32.0977628 C18.8499411,31.9790526 18.9045277,31.8216925 18.929508,31.7480738 C18.9729922,31.6201613 19.0599606,31.3689374 19.1617321,31.0717018 C19.1885628,30.9962426 19.232047,30.8692503 19.2588777,30.7910304 C19.2857084,30.7128106 19.3393698,30.557291 19.3773028,30.4459427 C19.416161,30.3345944 19.467972,30.183676 19.4938775,30.1100573 C19.5188578,30.0364385 19.5789955,29.8606738 19.6280309,29.7189578 C19.6770663,29.5772418 19.7288772,29.4263234 19.7436804,29.3830724 C19.7769874,29.2864478 19.9379715,28.8180487 19.9749793,28.7113015 C19.9897825,28.6680505 20.0277155,28.5603832 20.058247,28.4720407 C20.0897036,28.3836982 20.1183847,28.2990367 20.1230107,28.2833927 C20.1267115,28.268669 20.1535421,28.1895289 20.1822232,28.1085483 C20.2682664,27.8600851 20.3811403,27.5352425 20.4236993,27.4091704 C20.445904,27.3438338 20.497715,27.1919952 20.5393488,27.073285 C20.5809826,26.9545748 20.634644,26.7972148 20.6596243,26.7235961 C20.6846046,26.6499773 20.7364155,26.499059 20.7752738,26.3877106 C20.814132,26.2763623 20.8668682,26.1236035 20.8927737,26.047224 C20.9186791,25.9717649 20.960313,25.8512142 20.984368,25.7803562 C21.0084231,25.7094982 21.0620845,25.5539786 21.1037183,25.4352684 C21.1444269,25.3165582 21.1990135,25.1591982 21.2239938,25.0855795 C21.2489741,25.0119608 21.300785,24.8610424 21.3396433,24.7496941 C21.3785015,24.6383458 21.4201353,24.5159546 21.4312377,24.478225 C21.4552928,24.4036861 21.4552928,24.4018456 21.5663163,24.0825244 C21.6468083,23.8497052 21.6606862,23.8092149 21.7596822,23.5211817 C21.7948397,23.4171952 21.8512766,23.255234 21.8836585,23.1604499 L21.9437962,22.9892864 L20.3163766,17.8368961 C19.4217122,15.0034955 18.6861815,12.6780641 18.6824807,12.6688618 C18.6769295,12.657819 18.6482484,12.7378794 18.5881107,12.9311285 C18.5400005,13.0848076 18.4752368,13.2927805 18.4428549,13.3940062 C18.4113983,13.495232 18.3161031,13.7998294 18.2309851,14.0703782 C18.1467922,14.340927 18.0487215,14.6538066 18.013564,14.7651549 C17.9182689,15.0679119 17.6379345,15.9651401 17.3983088,16.7298546 C17.2502774,17.2037751 17.1188996,17.6215613 16.9357108,18.2068302 C16.8885258,18.3586688 16.7904551,18.6715483 16.7182898,18.9016069 C16.6461245,19.1316654 16.5610065,19.4031344 16.5286246,19.5043601 C16.4962428,19.6055859 16.4638609,19.7095723 16.4564593,19.7344186 C16.4481326,19.7601852 16.4129751,19.873374 16.3778177,19.987483 C16.3417351,20.101592 16.275121,20.3169268 16.227936,20.4660047 C16.1455935,20.7291916 15.987385,21.2344001 15.8578576,21.6485054 C15.8227002,21.7598537 15.7542357,21.9779492 15.7061255,22.134389 C15.6570901,22.2899085 15.5784484,22.5420527 15.5303383,22.6957317 C15.4822281,22.8484906 15.3924841,23.1356036 15.3304959,23.3325337 C15.2685078,23.530384 15.1898662,23.7825281 15.1547087,23.8938764 C15.1195513,24.0052247 15.0409096,24.2582891 14.9789215,24.4552192 C14.9169334,24.6530695 14.8271894,24.9383421 14.7800044,25.0901807 C14.7328194,25.2420193 14.6430754,25.5282121 14.5810873,25.7251421 C14.5190991,25.9229925 14.4293551,26.208265 14.3821702,26.3601036 C14.3349852,26.5119422 14.2267372,26.8579502 14.1416192,27.128499 C14.0565012,27.3990478 13.9482533,27.7450558 13.9010683,27.8968944 C13.6827221,28.5944318 13.5855765,28.9054709 13.526364,29.0931987 C13.4912065,29.204547 13.3931357,29.5174266 13.3089429,29.7879754 C13.2238249,30.0585242 13.1303801,30.3585205 13.0998486,30.4542248 C13.0702424,30.5499291 13.0452621,30.6336704 13.0452621,30.6401121 C13.0452621,30.6493144 16.1400424,39.6105533 16.1733494,39.6979756 C16.1779754,39.7099386 16.1835266,39.7182207 16.1863021,39.7166363 C16.1881525,39.7145398 16.2020305,39.6749697 16.2177588,39.6298782 Z" id="Shape"></path>
                </g>
            </g>
        </g>
    </g>
</svg>