<?xml version="1.0" encoding="utf-8"?>
<!-- Generator: Adobe Illustrator 23.0.3, SVG Export Plug-In . SVG Version: 6.00 Build 0)  -->
<svg version="1.1" id="Layer_1" xmlns="http://www.w3.org/2000/svg" xmlns:xlink="http://www.w3.org/1999/xlink" x="0px" y="0px"
	 viewBox="0 0 349.5 323" style="enable-background:new 0 0 349.5 323;" xml:space="preserve">
<g>
	<path d="M52.2,152.4l29.7-9.8L48.1,211L0,145.3l29.4,8.1c2.8-59,37.6-111.2,90.8-136.7C199.6-21.4,296.5,12,335,92.2
		S338.8,269,259.4,307c-54.1,25.9-118,20-166.1-15.7l13.3-18.6c41.5,31.1,96,36,142.9,13.5c68.5-32.9,98.1-114.7,64.8-184.1
		C281.4,33.7,198.7,4.6,130.1,37.4C85.1,59,55.3,103.3,51.3,152.9L52.2,152.4z"/>
</g>
</svg>
