<?xml version="1.0" encoding="UTF-8"?>
<svg width="21px" height="30px" viewBox="0 0 21 30" version="1.1" xmlns="http://www.w3.org/2000/svg" xmlns:xlink="http://www.w3.org/1999/xlink">
    <!-- Generator: Sketch 63.1 (92452) - https://sketch.com -->
    <title>Group</title>
    <desc>Created with Sketch.</desc>
    <g id="Mobile-v2" stroke="none" stroke-width="1" fill="none" fill-rule="evenodd">
        <g id="LM-Newsletter-index" transform="translate(-105.000000, -552.000000)" fill="#FFFFFF" fill-rule="nonzero">
            <g id="Interactive" transform="translate(-19.000000, 0.000000)">
                <g id="Group-2" transform="translate(111.000000, 549.000000)">
                    <g id="noun_double-click_2029978" transform="translate(13.000000, 3.000000)">
                        <g id="Group" transform="translate(0.434783, 0.000000)">
                            <path d="M18.0901961,15.9946875 C17.63061,15.7785573 17.0975145,15.7557875 16.6196078,15.931875 L16.3137255,16.044375 L15.3715686,15.8090625 C15.0154955,15.719233 14.6392197,15.7355882 14.2931373,15.8559375 L13.754902,16.0434375 L13.0392157,15.8334375 C12.6838792,15.7279312 12.3031448,15.7298956 11.9490196,15.8390625 L11.9117647,15.8503125 L11.9117647,9.7059375 C11.9106832,8.77919735 11.1250228,8.02832908 10.1558824,8.0278125 L9.83529412,8.0278125 C8.86653648,8.02884582 8.08147276,8.77956301 8.08039216,9.7059375 L8.08039216,16.15125 C7.51134923,15.6918094 6.71508476,15.5901892 6.03995785,15.8908474 C5.36483093,16.1915057 4.93374404,16.8397095 4.93528995,17.551875 C4.93528995,17.570625 4.93528995,17.5903125 4.93528995,17.6090625 L5.52352941,23.630625 C5.53018586,23.6952862 5.54738759,23.7585522 5.5745098,23.818125 L8.13039216,29.41125 C8.22163499,29.6108721 8.4173164,29.7487828 8.64372512,29.7730323 C8.87013383,29.7972818 9.09287296,29.7041862 9.22803884,29.5288136 C9.36320472,29.353441 9.39026244,29.1224346 9.29901961,28.9228125 L6.78333333,23.4196875 L6.20784314,17.53125 C6.22430317,17.2165305 6.48756069,16.9649868 6.81669181,16.9494923 C7.14582293,16.9339978 7.43364535,17.1595984 7.48235294,17.47125 C7.50392157,17.62125 7.92843137,19.745625 8.07647059,20.48625 L8.07647059,20.71875 C8.07647059,21.0552985 8.36177933,21.328125 8.71372549,21.328125 C9.06567165,21.328125 9.35098039,21.0552985 9.35098039,20.71875 L9.35098039,9.7059375 C9.35151974,9.45244563 9.56628301,9.24707825 9.83137255,9.2465625 L10.1519608,9.2465625 C10.4174331,9.24656197 10.6327927,9.45208012 10.6333333,9.7059375 L10.6333333,16.573125 C10.6333333,16.58625 10.6333333,16.599375 10.6333333,16.6115625 C10.6218464,16.698246 10.630551,16.7862861 10.6588235,16.869375 C10.710106,17.0234166 10.8233877,17.15161 10.9736643,17.2256597 C11.123941,17.2997093 11.298857,17.3135269 11.4598039,17.2640625 L12.3313725,16.9978125 C12.437904,16.9654776 12.5522921,16.9654776 12.6588235,16.9978125 L13.5784314,17.26875 C13.7106003,17.3074004 13.8523006,17.3041116 13.9823529,17.259375 L14.7205882,17.0034375 C14.8247742,16.9674392 14.9379342,16.9625355 15.045098,16.989375 L16.1852941,17.2753125 C16.31501,17.3082185 16.4522914,17.3009984 16.577451,17.2546875 L17.0754902,17.0671875 C17.2216588,17.013142 17.3847916,17.0199392 17.5254902,17.0859375 C17.650906,17.1434422 17.7454613,17.2484772 17.7862745,17.375625 C17.7920811,17.3930099 17.796023,17.4109146 17.7980392,17.4290625 L17.7980392,23.5734375 L14.8852941,29.03625 C14.7817922,29.2301782 14.7943453,29.4621772 14.918225,29.644855 C15.0421046,29.8275329 15.2584905,29.9331366 15.4858721,29.9218863 C15.7132536,29.9106359 15.9170863,29.7842407 16.0205882,29.5903125 L19.004902,24 C19.051391,23.912957 19.0752672,23.8164854 19.0745273,23.71875 L19.0745273,17.428125 C19.0733282,17.2927023 19.0515309,17.1581658 19.0098039,17.02875 C18.8698993,16.5752586 18.5358032,16.1995808 18.0901961,15.9946875 Z" id="Path"></path>
                            <path d="M5.45196078,13.32375 C5.74021466,13.1308384 5.81043324,12.7510409 5.60882353,12.4753125 C4.06642645,10.3586039 4.41580239,7.47451863 6.42339595,5.75104763 C8.43098951,4.02757664 11.4671054,4.00529831 13.5021211,5.69910556 C15.5371368,7.3929128 15.9327559,10.2715315 14.4245098,12.410625 C14.22742,12.6897014 14.3042339,13.0687203 14.5960785,13.2571875 C14.887923,13.4456546 15.2842827,13.3722014 15.4813725,13.093125 C17.3490744,10.4443369 16.8592804,6.8797617 14.3394091,4.78225446 C11.8195379,2.68474722 8.0599467,2.7121908 5.57385529,4.84623966 C3.08776388,6.98028851 2.6549345,10.5515985 4.56470588,13.1728125 C4.76613393,13.4487725 5.16336231,13.5163479 5.45196078,13.32375 L5.45196078,13.32375 Z" id="Path"></path>
                            <path d="M10,0.0749977327 C5.97388931,0.0723513272 2.34306336,2.39053496 0.802351501,5.94744845 C-0.738360356,9.50436194 0.114854765,13.5986177 2.96372549,16.3190625 C3.12339327,16.4788693 3.36103325,16.5434756 3.58473832,16.4878951 C3.80844338,16.4323146 3.98313942,16.2652615 4.04126285,16.0513435 C4.09938627,15.8374255 4.03182407,15.6101823 3.86470588,15.4575 C3.4713834,15.0812986 3.11650645,14.6700591 2.80490196,14.229375 C0.505927099,10.9623905 0.92577187,6.60003529 3.80969482,3.78917513 C6.69361777,0.978314958 11.2467205,0.493709863 14.7064009,2.62939472 C18.1660814,4.76507958 19.5787445,8.93239354 18.0872549,12.6028125 C17.9991149,12.806736 18.0331428,13.0402913 18.1762164,13.2134112 C18.3192899,13.386531 18.5490544,13.4721662 18.7769045,13.4372927 C19.0047546,13.4024193 19.1950897,13.252486 19.2745098,13.0453125 C20.4646916,10.1169068 20.0675306,6.81556624 18.2130506,4.22209376 C16.3585705,1.62862129 13.2855336,0.0769235224 10,0.0749977327 Z" id="Path"></path>
                        </g>
                    </g>
                </g>
            </g>
        </g>
    </g>
</svg>