<?xml version="1.0" standalone="no"?>
<!DOCTYPE svg PUBLIC "-//W3C//DTD SVG 20010904//EN"
 "http://www.w3.org/TR/2001/REC-SVG-20010904/DTD/svg10.dtd">
<svg version="1.0" xmlns="http://www.w3.org/2000/svg"
 width="800.000000pt" height="800.000000pt" viewBox="0 0 800.000000 800.000000"
 preserveAspectRatio="xMidYMid meet">
<metadata>
Created by potrace 1.11, written by Peter Selinger 2001-2013
</metadata>
<g transform="translate(0.000000,800.000000) scale(0.100000,-0.100000)"
fill="#000000" stroke="none">
<path d="M3745 7933 c-5 -10 -9 -23 -11 -30 -3 -18 -85 -255 -95 -278 -5 -11
-20 -56 -34 -100 -14 -44 -28 -87 -32 -95 -3 -8 -7 -17 -8 -20 -1 -3 -4 -12
-8 -20 -3 -8 -31 -91 -62 -185 -31 -93 -59 -177 -62 -185 -3 -8 -7 -19 -9 -25
-2 -5 -28 -82 -59 -170 -31 -88 -58 -167 -60 -175 -5 -19 -88 -254 -105 -295
-6 -16 -11 -30 -10 -30 2 0 -28 -91 -40 -120 -5 -11 -27 -76 -50 -145 -22 -69
-44 -132 -47 -140 -6 -16 -11 -32 -16 -52 -1 -7 -5 -17 -8 -23 -4 -5 -17 -41
-29 -80 -12 -38 -27 -76 -33 -82 -5 -7 -7 -13 -4 -13 3 0 -8 -37 -24 -82 -17
-46 -32 -90 -34 -98 -2 -8 -31 -94 -65 -190 -34 -96 -63 -182 -65 -190 -3 -8
-13 -40 -24 -70 -11 -30 -63 -181 -115 -335 -53 -154 -98 -286 -101 -293 -2
-7 -5 -16 -6 -20 -1 -6 -11 -33 -35 -97 -4 -11 -8 -24 -10 -30 -3 -11 -133
-388 -135 -392 -1 -2 -2 -6 -4 -10 -1 -5 -4 -15 -8 -23 -3 -8 -14 -42 -25 -75
-11 -33 -59 -172 -107 -310 -47 -137 -104 -302 -125 -365 -65 -191 -111 -324
-117 -340 -3 -8 -7 -17 -8 -20 -5 -21 -89 -267 -94 -275 -3 -5 -6 -14 -7 -20
-2 -11 -81 -242 -91 -265 -3 -8 -7 -17 -8 -20 0 -3 -21 -63 -45 -135 -24 -71
-45 -132 -45 -135 -1 -3 -7 -18 -14 -35 -7 -16 -14 -34 -15 -40 -1 -5 -13 -41
-26 -80 -13 -38 -25 -72 -25 -75 -1 -3 -4 -12 -8 -20 -3 -8 -18 -51 -32 -95
-15 -44 -29 -87 -32 -95 -4 -8 -7 -18 -8 -22 -2 -5 -4 -10 -5 -13 -1 -3 -3 -8
-4 -12 -1 -5 -4 -13 -8 -19 -4 -6 -9 -21 -12 -35 -4 -19 -59 -185 -83 -249
-23 -62 -145 -419 -148 -434 -2 -10 -9 -24 -16 -32 -6 -8 -9 -14 -5 -14 3 0
-5 -29 -19 -66 -13 -36 -41 -114 -62 -175 l-37 -109 -47 0 c-28 0 -49 -5 -52
-12 -3 -7 -14 -36 -25 -64 l-20 -50 261 0 262 1 0 60 0 60 -42 3 c-47 3 -50 9
-28 52 9 17 14 30 11 30 -2 0 9 37 26 83 16 45 48 138 71 207 23 69 47 128 52
132 6 4 7 8 3 8 -3 0 3 26 14 58 68 192 160 459 163 473 2 8 10 31 17 50 8 18
16 39 18 44 4 16 8 27 26 80 45 133 78 228 149 430 42 121 78 225 79 230 2 6
5 17 8 25 3 8 16 44 28 80 12 36 25 72 28 80 3 8 6 20 8 25 4 16 151 435 169
485 9 25 18 50 19 55 1 6 4 15 7 20 4 6 10 24 14 40 10 35 10 35 18 55 3 8 38
107 77 219 63 183 80 228 80 209 0 -3 29 -91 64 -195 35 -103 89 -267 119
-363 30 -96 59 -186 63 -200 4 -14 9 -27 9 -30 1 -3 4 -12 8 -20 8 -22 39
-119 41 -133 3 -13 92 -296 106 -337 5 -14 34 -106 65 -205 122 -390 158 -502
175 -555 10 -30 42 -129 70 -220 29 -91 61 -194 73 -230 12 -36 22 -67 22 -70
0 -3 14 -45 30 -95 16 -49 29 -92 30 -95 0 -3 20 -66 44 -140 23 -74 45 -144
47 -155 3 -11 9 -29 14 -40 5 -11 15 -42 23 -70 l14 -50 51 -1 c44 -1 65 9 61
29 0 1 5 16 11 32 11 28 57 173 65 205 2 8 9 31 16 50 18 52 22 64 24 70 0 3
4 16 9 30 4 14 28 90 53 170 54 177 98 317 149 475 21 66 39 122 39 125 4 20
48 159 55 175 4 11 23 67 40 125 18 58 53 170 78 250 25 80 47 147 47 150 0 3
12 39 25 80 13 41 25 77 25 80 2 9 56 183 80 255 32 99 84 269 84 278 1 4 7
23 15 42 9 20 16 39 17 43 4 18 8 30 22 72 9 25 34 106 57 180 23 74 49 159
59 189 l17 54 28 -74 c15 -41 32 -83 37 -94 14 -32 42 -113 124 -355 42 -124
79 -232 82 -240 3 -8 7 -19 9 -25 1 -5 34 -102 74 -215 39 -113 96 -279 126
-370 31 -91 59 -174 64 -185 4 -11 18 -49 30 -85 12 -36 25 -72 28 -80 3 -8 6
-18 7 -22 2 -5 3 -9 5 -10 1 -2 3 -10 5 -18 2 -8 33 -100 70 -205 97 -278 173
-499 205 -595 16 -47 64 -190 109 -317 l80 -233 -74 0 -73 0 1 -63 2 -62 683
0 c425 -1 682 3 682 9 0 5 -8 33 -17 62 l-16 53 -61 3 -61 3 -35 102 c-19 56
-36 106 -37 110 -2 4 -18 51 -36 103 -19 52 -55 158 -81 235 -26 77 -51 149
-56 160 -13 30 -81 227 -87 250 -3 11 -9 29 -13 40 -5 11 -16 40 -24 65 -8 25
-40 117 -71 205 -31 88 -58 167 -60 175 -2 8 -26 79 -54 157 -27 79 -48 143
-44 143 3 0 1 6 -5 13 -10 11 -86 222 -99 272 -2 11 -8 29 -13 40 -5 11 -34
94 -65 185 -31 91 -61 177 -67 192 -5 15 -10 31 -11 35 0 4 -24 78 -54 163
-30 85 -75 216 -100 290 -25 74 -50 141 -56 148 -5 6 -7 12 -3 12 3 0 1 12 -5
28 -6 15 -35 97 -64 182 -30 85 -84 241 -120 345 -37 105 -73 213 -82 240 -8
28 -18 55 -21 60 -4 6 -7 12 -8 15 -1 10 -32 106 -42 130 -5 14 -10 27 -11 30
0 3 -19 57 -42 120 -22 63 -42 120 -43 127 -1 7 -5 16 -9 19 -4 4 -7 13 -7 20
0 7 -5 25 -12 41 -6 15 -12 30 -13 33 0 3 -12 37 -25 75 -13 39 -25 72 -25 75
-1 3 -4 12 -8 20 -14 36 -69 193 -72 204 -1 6 -5 18 -8 26 -4 8 -38 107 -76
220 -38 113 -106 311 -151 440 -145 418 -161 465 -164 475 -2 6 -6 17 -9 25
-3 8 -20 58 -37 110 -18 52 -36 104 -40 115 -12 27 -50 136 -55 155 -5 19 -73
218 -84 245 -5 11 -14 38 -20 60 -7 22 -16 49 -21 60 -5 11 -20 54 -34 95 -51
152 -143 417 -148 426 -3 5 -10 25 -16 44 -6 19 -33 100 -61 179 -28 80 -51
146 -51 147 0 1 -80 3 -179 4 -162 0 -179 -1 -186 -17z m-166 -1528 c11 -33
43 -127 71 -210 29 -82 94 -271 145 -420 51 -148 134 -389 185 -535 50 -146
99 -290 110 -320 10 -30 59 -174 110 -320 50 -146 93 -269 94 -275 3 -10 8
-23 29 -80 6 -16 12 -34 13 -40 1 -5 23 -71 49 -145 26 -74 48 -139 50 -145 1
-5 8 -23 15 -40 17 -38 18 -96 3 -126 -7 -13 -30 -82 -52 -154 -54 -177 -107
-344 -121 -380 -6 -16 -11 -32 -11 -35 0 -10 -50 -175 -60 -195 -5 -11 -11
-29 -14 -40 -2 -11 -25 -85 -50 -165 -26 -80 -53 -165 -60 -190 -18 -61 -75
-241 -82 -260 -3 -8 -7 -19 -9 -25 -36 -125 -41 -138 -49 -124 -5 8 -10 19
-11 24 -1 6 -13 44 -27 85 -23 72 -70 220 -72 230 -6 27 -28 97 -33 105 -4 6
-7 15 -8 21 -3 17 -45 156 -54 179 -5 11 -23 67 -40 125 -18 58 -44 141 -58
185 -14 44 -27 85 -28 90 -2 6 -30 98 -64 205 -34 107 -63 200 -64 205 -2 6
-6 17 -9 25 -3 8 -22 69 -42 135 -20 66 -40 131 -45 145 -5 14 -30 93 -55 175
-26 83 -71 229 -101 325 -31 96 -62 198 -70 225 -9 28 -18 57 -22 65 -3 8 -6
20 -7 25 0 6 -3 15 -6 20 -3 6 -23 67 -44 137 l-38 127 27 78 c15 43 30 85 33
93 4 8 7 20 9 25 1 6 25 75 54 155 28 80 53 153 55 162 2 9 9 26 15 37 6 12 8
21 4 21 -3 0 -2 6 3 13 11 14 56 153 53 163 -1 4 2 10 7 13 4 3 34 83 66 176
32 94 83 245 115 337 31 92 60 164 64 160 4 -4 16 -34 27 -67z"/>
</g>
</svg>
